<?xml version="1.0" standalone="no"?>
<!DOCTYPE svg PUBLIC "-//W3C//DTD SVG 20010904//EN"
 "http://www.w3.org/TR/2001/REC-SVG-20010904/DTD/svg10.dtd">
<svg version="1.0" xmlns="http://www.w3.org/2000/svg"
 width="100.000000pt" height="90.000000pt" viewBox="0 0 556.000000 430.000000"
 preserveAspectRatio="xMidYMid meet">

<g transform="translate(0.000000,430.000000) scale(0.100000,-0.100000)"
fill="#000000" stroke="none">
<path d="M4880 4190 c0 -6 -50 -10 -130 -10 -80 0 -130 -4 -130 -10 0 -6 -87
-10 -240 -10 -153 0 -240 -4 -240 -10 0 -6 -67 -10 -180 -10 -113 0 -180 4
-180 10 0 6 -49 10 -126 10 l-126 0 -40 -42 c-25 -26 -43 -38 -45 -30 -3 7
-21 12 -44 12 -21 0 -39 5 -39 10 0 6 -9 10 -20 10 -11 0 -20 -4 -20 -10 0 -5
-13 -10 -30 -10 -16 0 -30 -4 -30 -10 0 -5 -8 -10 -18 -10 -10 0 -24 -9 -32
-20 -8 -11 -22 -20 -32 -20 -10 0 -18 -4 -18 -10 0 -5 -9 -10 -20 -10 -11 0
-20 -4 -20 -10 0 -5 -7 -10 -15 -10 -20 0 -85 -65 -85 -85 0 -8 -4 -15 -10
-15 -5 0 -10 -9 -10 -20 0 -11 -4 -20 -10 -20 -7 0 -10 -157 -10 -450 0 -293
-3 -450 -10 -450 -6 0 -10 -43 -10 -110 0 -67 -4 -110 -10 -110 -5 0 -10 -12
-10 -26 0 -29 -21 -54 -44 -54 -9 0 -16 -4 -16 -10 0 -15 -29 -12 -46 4 -8 8
-14 26 -14 40 0 14 -4 26 -10 26 -5 0 -10 14 -10 30 0 17 -4 30 -10 30 -5 0
-10 14 -10 30 0 17 -4 30 -10 30 -5 0 -10 18 -10 40 0 22 -4 40 -10 40 -5 0
-10 23 -10 50 0 28 -4 50 -10 50 -5 0 -10 23 -10 50 0 28 -4 50 -10 50 -6 0
-10 97 -10 270 0 173 4 270 10 270 6 0 10 53 10 140 0 87 -4 140 -10 140 -5 0
-10 9 -10 20 0 11 -4 20 -10 20 -5 0 -10 7 -10 15 0 19 -64 85 -82 85 -8 0
-20 9 -28 20 -10 14 -26 20 -52 20 -21 0 -38 5 -38 10 0 6 -33 10 -80 10 -47
0 -80 -4 -80 -10 0 -5 -13 -10 -30 -10 -16 0 -30 -4 -30 -10 0 -5 -7 -10 -15
-10 -20 0 -145 -125 -145 -145 0 -8 -4 -15 -10 -15 -5 0 -10 -9 -10 -20 0 -11
-4 -20 -10 -20 -5 0 -10 -9 -10 -20 0 -11 -4 -20 -10 -20 -5 0 -10 -12 -10
-26 0 -23 -20 -54 -34 -54 -3 0 -6 9 -6 20 0 11 -4 20 -10 20 -5 0 -10 9 -10
20 0 11 -4 20 -10 20 -5 0 -10 8 -10 18 0 10 -9 24 -20 32 -11 8 -20 20 -20
28 0 16 -45 62 -60 62 -6 0 -38 27 -70 60 -32 33 -66 60 -74 60 -9 0 -16 5
-16 10 0 6 -13 10 -30 10 -16 0 -30 5 -30 10 0 6 -30 10 -70 10 -40 0 -70 -4
-70 -10 0 -5 -22 -10 -50 -10 -27 0 -50 -4 -50 -10 0 -5 -9 -10 -20 -10 -11 0
-20 -4 -20 -10 0 -6 -30 -10 -70 -10 -40 0 -70 -4 -70 -10 0 -5 -7 -10 -15
-10 -19 0 -65 -44 -65 -62 0 -8 -9 -20 -20 -28 -11 -8 -20 -21 -20 -30 0 -9
-9 -22 -20 -30 -12 -8 -20 -26 -20 -42 0 -15 -4 -28 -10 -28 -5 0 -10 -8 -10
-18 0 -10 -9 -24 -20 -32 -11 -8 -20 -22 -20 -32 0 -10 -4 -18 -10 -18 -5 0
-10 -9 -10 -20 0 -11 -4 -20 -10 -20 -5 0 -10 -9 -10 -20 0 -11 -4 -20 -10
-20 -5 0 -10 -9 -10 -20 0 -11 -4 -20 -10 -20 -5 0 -10 -13 -10 -30 0 -16 -4
-30 -10 -30 -5 0 -10 -9 -10 -20 0 -11 -4 -20 -10 -20 -5 0 -10 -13 -10 -30 0
-16 -4 -30 -10 -30 -5 0 -10 -13 -10 -30 0 -16 -4 -30 -10 -30 -5 0 -10 -18
-10 -40 0 -22 -4 -40 -10 -40 -5 0 -10 -22 -10 -50 0 -27 -4 -50 -10 -50 -6 0
-10 -33 -10 -80 0 -47 -4 -80 -10 -80 -6 0 -10 -57 -10 -150 0 -93 4 -150 10
-150 6 0 10 -33 10 -80 0 -47 4 -80 10 -80 6 0 10 -18 10 -40 l0 -40 -226 0
c-182 0 -228 -3 -240 -14 -12 -13 -14 -183 -14 -1180 l0 -1166 480 0 480 0 0
200 0 200 -240 0 -240 0 0 970 c0 640 3 970 10 970 6 0 10 -18 10 -40 0 -22 5
-40 10 -40 6 0 10 -13 10 -30 0 -16 5 -30 10 -30 6 0 10 -9 10 -20 0 -11 5
-20 10 -20 6 0 10 -13 10 -28 0 -16 8 -34 20 -42 11 -8 20 -22 20 -32 0 -10 5
-18 10 -18 6 0 10 -7 10 -15 0 -20 165 -185 185 -185 8 0 15 -4 15 -10 0 -5 9
-10 20 -10 11 0 20 -4 20 -10 0 -5 9 -10 20 -10 11 0 20 -4 20 -10 0 -5 18
-10 40 -10 22 0 40 -4 40 -10 0 -5 23 -10 50 -10 l50 0 0 -640 c0 -420 3 -640
10 -640 6 0 10 -22 10 -50 0 -27 5 -50 10 -50 6 0 10 -13 10 -30 0 -16 5 -30
10 -30 6 0 10 -9 10 -20 0 -11 5 -20 10 -20 6 0 10 -9 10 -20 0 -11 5 -20 10
-20 6 0 10 -8 10 -18 0 -10 9 -24 20 -32 11 -8 20 -20 20 -28 0 -17 45 -62 62
-62 8 0 20 -9 28 -20 8 -11 22 -20 32 -20 10 0 18 -4 18 -10 0 -5 9 -10 20
-10 11 0 20 -4 20 -10 0 -5 9 -10 20 -10 11 0 20 -4 20 -10 0 -5 18 -10 40
-10 22 0 40 -4 40 -10 0 -6 53 -10 140 -10 87 0 140 4 140 10 0 6 18 10 40 10
22 0 40 5 40 10 0 6 14 10 30 10 17 0 30 5 30 10 0 6 7 10 16 10 9 0 29 14 44
30 15 17 33 30 39 30 16 0 61 46 61 62 0 8 9 20 20 28 11 8 20 22 20 32 0 10
5 18 10 18 6 0 10 9 10 20 0 11 5 20 10 20 6 0 10 9 10 20 0 11 5 20 10 20 6
0 10 14 10 30 0 17 5 30 10 30 6 0 10 23 10 50 0 28 5 50 10 50 7 0 10 230 10
670 0 663 0 670 20 670 11 0 20 -4 20 -10 0 -5 14 -10 30 -10 17 0 30 -4 30
-10 0 -5 14 -10 30 -10 l30 0 0 -570 c0 -373 3 -570 10 -570 6 0 10 -43 10
-110 0 -67 4 -110 10 -110 6 0 10 -13 10 -30 0 -16 5 -30 10 -30 6 0 10 -13
10 -30 0 -16 5 -30 10 -30 6 0 10 -9 10 -20 0 -11 5 -20 10 -20 6 0 10 -9 10
-20 0 -11 5 -20 10 -20 6 0 10 -7 10 -15 0 -20 125 -145 145 -145 8 0 15 -4
15 -10 0 -5 9 -10 20 -10 11 0 20 -4 20 -10 0 -5 14 -10 30 -10 17 0 30 -4 30
-10 0 -5 18 -10 40 -10 22 0 40 -4 40 -10 0 -6 50 -10 130 -10 80 0 130 4 130
10 0 6 18 10 40 10 22 0 40 5 40 10 0 6 14 10 30 10 17 0 30 5 30 10 0 6 9 10
20 10 11 0 20 5 20 10 0 6 7 10 15 10 20 0 145 125 145 145 0 8 5 15 10 15 6
0 10 9 10 20 0 11 5 20 10 20 6 0 10 9 10 20 0 11 5 20 10 20 6 0 10 9 10 20
0 11 5 20 10 20 6 0 10 18 10 40 0 22 5 40 10 40 6 0 10 37 10 90 0 53 4 90
10 90 7 0 10 207 10 600 0 393 -3 600 -10 600 -6 0 -10 33 -10 80 0 47 -4 80
-10 80 -5 0 -10 18 -10 40 0 22 -4 40 -10 40 -5 0 -10 9 -10 20 0 11 -4 20
-10 20 -5 0 -10 9 -10 20 0 11 -4 20 -10 20 -5 0 -10 8 -10 18 0 10 -9 24 -20
32 -11 8 -20 20 -20 28 0 17 -24 42 -40 42 -7 0 -25 14 -40 30 -15 17 -35 30
-44 30 -9 0 -16 5 -16 10 0 6 -9 10 -20 10 -11 0 -20 5 -20 10 0 6 -13 10 -30
10 -27 0 -30 3 -30 30 0 17 5 30 10 30 6 0 10 14 10 30 0 17 5 30 10 30 6 0
10 18 10 40 0 22 5 40 10 40 6 0 10 27 10 60 0 33 4 60 10 60 6 0 10 33 10 80
0 47 4 80 10 80 6 0 10 80 10 220 0 213 1 220 20 220 11 0 20 -4 20 -10 0 -6
30 -10 70 -10 40 0 70 -4 70 -10 0 -6 40 -10 100 -10 l100 0 0 -130 c0 -80 -4
-130 -10 -130 -6 0 -10 -73 -10 -200 0 -127 -4 -200 -10 -200 -6 0 -10 -57
-10 -150 0 -93 4 -150 10 -150 6 0 10 -40 10 -100 0 -60 4 -100 10 -100 6 0
10 -18 10 -40 0 -22 5 -40 10 -40 6 0 10 -9 10 -20 0 -11 5 -20 10 -20 6 0 10
-9 10 -20 0 -11 5 -20 10 -20 6 0 10 -9 10 -20 0 -11 5 -20 10 -20 7 0 10
-317 10 -930 l0 -930 230 0 230 0 0 550 c0 360 3 550 10 550 6 0 10 -13 10
-30 0 -16 5 -30 10 -30 6 0 10 -22 10 -50 0 -27 5 -50 10 -50 6 0 10 -18 10
-40 0 -22 5 -40 10 -40 6 0 10 -18 10 -40 0 -22 5 -40 10 -40 6 0 10 -22 10
-50 0 -27 5 -50 10 -50 6 0 10 -18 10 -40 0 -22 5 -40 10 -40 6 0 10 -22 10
-50 0 -27 5 -50 10 -50 6 0 10 -18 10 -40 0 -22 5 -40 10 -40 6 0 10 -22 10
-50 0 -27 5 -50 10 -50 6 0 10 -18 10 -40 0 -22 5 -40 10 -40 6 0 10 -18 10
-40 0 -22 5 -40 10 -40 6 0 10 -22 10 -50 0 -27 5 -50 10 -50 6 0 10 -13 10
-30 l0 -30 240 0 240 0 0 40 c0 22 -4 40 -10 40 -5 0 -10 23 -10 50 0 28 -4
50 -10 50 -5 0 -10 18 -10 40 0 22 -4 40 -10 40 -5 0 -10 18 -10 40 0 22 -4
40 -10 40 -5 0 -10 18 -10 40 0 22 -4 40 -10 40 -5 0 -10 18 -10 40 0 22 -4
40 -10 40 -5 0 -10 18 -10 40 0 22 -4 40 -10 40 -5 0 -10 18 -10 40 0 22 -4
40 -10 40 -5 0 -10 18 -10 40 0 22 -4 40 -10 40 -5 0 -10 18 -10 40 0 22 -4
40 -10 40 -5 0 -10 18 -10 40 0 22 -4 40 -10 40 -5 0 -10 18 -10 40 0 22 -4
40 -10 40 -5 0 -10 18 -10 40 0 22 -4 40 -10 40 -5 0 -10 18 -10 40 0 22 -4
40 -10 40 -5 0 -10 18 -10 40 0 22 -4 40 -10 40 -6 0 -10 27 -10 60 0 33 4 60
10 60 6 0 10 18 10 40 0 22 5 40 10 40 6 0 10 18 10 40 0 22 5 40 10 40 6 0
10 18 10 40 0 22 5 40 10 40 6 0 10 18 10 40 0 22 5 40 10 40 6 0 10 18 10 40
0 22 5 40 10 40 6 0 10 23 10 50 0 28 5 50 10 50 6 0 10 18 10 40 0 22 5 40
10 40 6 0 10 18 10 40 0 22 5 40 10 40 6 0 10 18 10 40 0 22 5 40 10 40 6 0
10 18 10 40 0 22 5 40 10 40 6 0 10 18 10 40 0 22 5 40 10 40 6 0 10 18 10 39
0 22 5 41 12 43 9 3 8 9 -4 21 -14 15 -45 17 -242 17 l-226 0 0 -30 c0 -16 -4
-30 -10 -30 -5 0 -10 -22 -10 -50 0 -27 -4 -50 -10 -50 -5 0 -10 -18 -10 -40
0 -22 -4 -40 -10 -40 -5 0 -10 -18 -10 -40 0 -22 -4 -40 -10 -40 -5 0 -10 -18
-10 -40 0 -22 -4 -40 -10 -40 -5 0 -10 -22 -10 -50 0 -27 -4 -50 -10 -50 -5 0
-10 -18 -10 -40 0 -22 -4 -40 -10 -40 -5 0 -10 -18 -10 -40 0 -22 -4 -40 -10
-40 -5 0 -10 -22 -10 -50 0 -27 -4 -50 -10 -50 -5 0 -10 -18 -10 -40 0 -22 -4
-40 -10 -40 -5 0 -10 -13 -10 -30 0 -16 -4 -30 -10 -30 -6 0 -10 73 -10 200 0
127 4 200 10 200 6 0 10 9 10 20 0 11 5 20 10 20 6 0 10 9 10 20 0 11 5 20 10
20 6 0 10 9 10 20 0 11 5 20 10 20 6 0 10 23 10 50 0 28 5 50 10 50 6 0 10 23
10 50 0 28 -4 50 -10 50 -7 0 -10 187 -10 540 0 353 -3 540 -10 540 -5 0 -10
5 -10 10 0 6 27 10 60 10 33 0 60 4 60 10 0 6 27 10 60 10 33 0 60 4 60 10 0
6 23 10 50 10 28 0 50 5 50 10 0 6 18 10 40 10 22 0 40 5 40 10 0 6 9 10 20
10 11 0 20 5 20 10 0 6 7 10 15 10 20 0 85 65 85 85 0 8 5 15 10 15 6 0 10 9
10 20 0 11 5 20 10 20 6 0 10 13 10 28 0 16 8 34 20 42 11 8 20 22 20 32 0 10
5 18 10 18 6 0 10 14 10 30 0 17 5 30 10 30 6 0 10 23 10 50 0 28 -4 50 -10
50 -5 0 -10 14 -10 30 0 17 -4 30 -10 30 -5 0 -10 18 -10 40 0 22 -4 40 -10
40 -5 0 -10 7 -10 15 0 9 -11 27 -25 40 -24 24 -28 25 -180 25 -97 0 -155 -4
-155 -10z m260 -129 c0 -11 -6 -21 -12 -24 -8 -2 -1 -15 20 -34 26 -26 32 -39
32 -73 0 -34 -6 -47 -30 -70 -16 -15 -30 -35 -30 -44 0 -9 -4 -16 -10 -16 -5
0 -10 -18 -10 -40 0 -22 -4 -40 -10 -40 -5 0 -10 -7 -10 -16 0 -20 -24 -44
-44 -44 -9 0 -16 -4 -16 -10 0 -5 -13 -10 -30 -10 -16 0 -30 -4 -30 -10 0 -5
-22 -10 -50 -10 -27 0 -50 -4 -50 -10 0 -6 -27 -10 -60 -10 -33 0 -60 -4 -60
-10 0 -6 -27 -10 -60 -10 -33 0 -60 -4 -60 -10 0 -5 -22 -10 -50 -10 l-50 0 0
-580 c0 -380 3 -580 10 -580 6 0 10 -33 10 -80 0 -47 -4 -80 -10 -80 -5 0 -10
-13 -10 -30 0 -16 -4 -30 -10 -30 -5 0 -10 -7 -10 -16 0 -15 -23 -44 -34 -44
-3 0 -6 27 -6 60 0 33 -4 60 -10 60 -5 0 -10 -20 -10 -45 0 -39 -5 -51 -35
-80 -19 -19 -41 -35 -50 -35 -8 0 -15 -4 -15 -10 0 -5 -18 -10 -40 -10 -22 0
-40 5 -40 10 0 6 -7 10 -15 10 -20 0 -85 65 -85 85 0 8 -4 15 -10 15 -5 0 -10
14 -10 30 0 17 -4 30 -10 30 -6 0 -10 37 -10 90 0 53 -4 90 -10 90 -6 0 -10
67 -10 180 0 113 4 180 10 180 6 0 10 77 10 210 0 133 4 210 10 210 6 0 10 60
10 160 l0 160 -160 0 c-100 0 -160 4 -160 10 0 6 -30 10 -70 10 -40 0 -70 4
-70 10 0 6 -13 10 -30 10 -16 0 -30 5 -30 10 0 6 -7 10 -15 10 -18 0 -65 44
-65 60 0 12 -24 40 -34 40 -3 0 -6 -9 -6 -20 0 -11 5 -20 10 -20 6 0 10 -117
10 -330 0 -213 -4 -330 -10 -330 -6 0 -10 -33 -10 -80 0 -47 -4 -80 -10 -80
-5 0 -10 -22 -10 -50 0 -27 -4 -50 -10 -50 -5 0 -10 -18 -10 -40 0 -22 -4 -40
-10 -40 -5 0 -10 -13 -10 -30 0 -16 -4 -30 -10 -30 -5 0 -10 -9 -10 -20 0 -11
-4 -20 -10 -20 -5 0 -10 -13 -10 -30 0 -16 -4 -30 -10 -30 -5 0 -10 -9 -10
-20 0 -11 -4 -20 -10 -20 -5 0 -10 -8 -10 -18 0 -10 -9 -24 -20 -32 -11 -8
-20 -20 -20 -27 0 -19 -207 -223 -225 -223 -8 0 -15 -4 -15 -10 0 -5 -9 -10
-20 -10 -11 0 -20 -4 -20 -10 0 -5 -9 -10 -20 -10 -11 0 -20 -4 -20 -10 0 -5
-13 -10 -30 -10 -16 0 -30 -4 -30 -10 0 -6 -33 -10 -80 -10 -47 0 -80 4 -80
10 0 6 -18 10 -40 10 -22 0 -40 5 -40 10 0 6 -13 10 -30 10 -16 0 -30 5 -30
10 0 6 -8 10 -18 10 -10 0 -24 9 -32 20 -8 11 -21 20 -28 20 -8 0 -27 14 -42
30 -15 17 -33 30 -39 30 -15 0 -61 46 -61 61 0 6 -13 24 -30 39 -16 15 -30 35
-30 44 0 9 -4 16 -10 16 -5 0 -10 9 -10 20 0 11 -4 20 -10 20 -5 0 -10 7 -10
16 0 22 -25 44 -50 44 -24 0 -70 42 -70 65 0 8 -4 15 -10 15 -5 0 -10 14 -10
30 0 17 -4 30 -10 30 -5 0 -10 14 -10 30 0 17 -4 30 -10 30 -5 0 -10 18 -10
40 0 22 -4 40 -10 40 -5 0 -10 23 -10 50 0 28 -4 50 -10 50 -6 0 -10 27 -10
60 0 33 -4 60 -10 60 -6 0 -10 90 -10 250 0 160 4 250 10 250 6 0 10 30 10 70
0 40 4 70 10 70 6 0 10 23 10 50 0 28 5 50 10 50 6 0 10 14 10 30 0 17 5 30
10 30 6 0 10 14 10 30 0 17 5 30 10 30 6 0 10 8 10 18 0 10 9 24 20 32 11 8
20 20 20 28 0 18 46 62 65 62 8 0 15 5 15 10 0 6 9 10 20 10 11 0 20 5 20 10
0 6 30 10 70 10 40 0 70 -4 70 -10 0 -5 7 -10 15 -10 26 0 105 -86 105 -115 0
-14 5 -25 10 -25 6 0 10 -18 10 -40 0 -22 -4 -40 -10 -40 -6 0 -10 -27 -10
-60 0 -33 -4 -60 -10 -60 -6 0 -10 -93 -10 -260 0 -167 4 -260 10 -260 6 0 10
-27 10 -60 0 -33 4 -60 10 -60 6 0 10 -27 10 -60 0 -33 4 -60 10 -60 6 0 10
-13 10 -30 0 -16 5 -30 10 -30 6 0 10 -18 10 -40 0 -22 5 -40 10 -40 6 0 10
-13 10 -30 0 -16 5 -30 10 -30 6 0 10 -13 10 -30 0 -16 5 -30 10 -30 6 0 10
-12 10 -26 0 -29 21 -54 44 -54 9 0 16 -4 16 -10 0 -5 9 -10 20 -10 11 0 20
-4 20 -10 0 -5 18 -10 40 -10 22 0 40 5 40 10 0 6 13 10 28 10 16 0 34 8 42
20 8 11 22 20 32 20 11 0 18 7 18 20 0 11 5 20 10 20 6 0 10 9 10 20 0 11 5
20 10 20 6 0 10 18 10 40 0 22 5 40 10 40 6 0 10 50 10 130 0 80 4 130 10 130
7 0 10 147 10 420 0 273 3 420 10 420 6 0 10 7 10 16 0 20 24 44 44 44 9 0 16
5 16 10 0 6 23 10 50 10 38 0 50 4 50 15 0 25 46 65 75 65 14 0 25 -4 25 -10
0 -5 7 -10 16 -10 9 0 26 -10 37 -22 13 -16 21 -19 24 -10 3 6 13 12 24 12 10
0 19 5 19 10 0 6 9 10 20 10 11 0 20 5 20 10 0 6 9 10 20 10 11 0 20 -4 20
-10 0 -6 50 -10 130 -10 80 0 130 4 130 10 0 6 -30 10 -70 10 -40 0 -70 4 -70
10 0 6 -27 10 -60 10 -33 0 -60 4 -60 10 0 6 60 10 160 10 100 0 160 -4 160
-10 0 -6 60 -10 160 -10 100 0 160 4 160 10 0 6 80 10 220 10 140 0 220 4 220
10 0 6 47 10 120 10 73 0 120 4 120 10 0 6 47 10 120 10 112 0 120 -1 120 -19z
m-3500 -31 c0 -5 7 -10 15 -10 18 0 65 -44 65 -60 0 -21 49 -60 75 -60 18 0
25 -5 25 -20 0 -11 5 -20 10 -20 6 0 10 -9 10 -20 0 -11 5 -20 10 -20 6 0 10
-9 10 -20 0 -11 5 -20 10 -20 6 0 10 -9 10 -20 0 -11 5 -20 10 -20 6 0 10 -9
10 -20 0 -11 5 -20 10 -20 6 0 10 -13 10 -30 0 -16 5 -30 10 -30 6 0 10 -13
10 -30 0 -16 5 -30 10 -30 6 0 10 -18 10 -40 0 -22 5 -40 10 -40 6 0 10 -27
10 -60 0 -33 4 -60 10 -60 6 0 10 -30 10 -70 0 -40 4 -70 10 -70 6 0 10 -90
10 -250 0 -160 -4 -250 -10 -250 -6 0 -10 -30 -10 -70 0 -40 -4 -70 -10 -70
-5 0 -10 -18 -10 -40 0 -22 -4 -40 -10 -40 -5 0 -10 -13 -10 -30 0 -16 -4 -30
-10 -30 -5 0 -10 -13 -10 -30 0 -16 -4 -30 -10 -30 -5 0 -10 -9 -10 -20 0 -11
-4 -20 -10 -20 -5 0 -10 -8 -10 -18 0 -10 -9 -24 -20 -32 -11 -8 -20 -20 -20
-27 0 -19 -146 -163 -165 -163 -8 0 -15 -4 -15 -10 0 -5 -9 -10 -20 -10 -11 0
-20 -4 -20 -10 0 -5 -13 -10 -30 -10 -16 0 -30 -4 -30 -10 0 -6 -47 -10 -120
-10 -73 0 -120 4 -120 10 0 6 -18 10 -40 10 -22 0 -40 5 -40 10 0 6 -9 10 -20
10 -11 0 -20 5 -20 10 0 6 -7 10 -15 10 -20 0 -145 125 -145 145 0 8 -4 15
-10 15 -5 0 -10 9 -10 20 0 11 -4 20 -10 20 -5 0 -10 9 -10 20 0 11 -4 20 -10
20 -5 0 -10 9 -10 20 0 11 -4 20 -10 20 -5 0 -10 14 -10 30 0 17 -4 30 -10 30
-5 0 -10 14 -10 30 0 17 -4 30 -10 30 -5 0 -10 23 -10 50 0 28 -4 50 -10 50
-6 0 -10 33 -10 80 0 47 -4 80 -10 80 -6 0 -10 57 -10 150 0 93 4 150 10 150
6 0 10 30 10 70 0 40 4 70 10 70 6 0 10 23 10 50 0 28 5 50 10 50 6 0 10 18
10 40 0 22 5 40 10 40 6 0 10 14 10 30 0 17 5 30 10 30 6 0 10 14 10 30 0 17
5 30 10 30 6 0 10 9 10 20 0 11 5 20 10 20 6 0 10 14 10 30 0 17 5 30 10 30 6
0 10 9 10 20 0 11 5 20 10 20 6 0 10 8 10 18 0 10 9 24 20 32 11 8 20 22 20
32 0 10 5 18 10 18 6 0 10 9 10 20 0 11 5 20 10 20 6 0 10 9 10 20 0 11 5 20
10 20 6 0 10 9 10 20 0 11 5 20 10 20 6 0 10 7 10 16 0 20 29 49 38 39 4 -4 1
-10 -5 -12 -7 -3 -13 -13 -13 -24 0 -10 -4 -19 -10 -19 -5 0 -10 -9 -10 -20 0
-11 -4 -20 -10 -20 -5 0 -10 -13 -10 -30 0 -16 5 -30 10 -30 6 0 10 9 10 20 0
11 5 20 10 20 6 0 10 7 10 16 0 9 14 29 30 44 17 15 30 33 30 40 0 16 25 40
42 40 8 0 20 9 28 20 8 12 26 20 42 20 15 0 28 5 28 10 0 6 18 10 40 10 22 0
40 5 40 10 0 6 30 10 70 10 40 0 70 -4 70 -10z m426 -1924 c8 -8 14 -22 14
-30 0 -9 5 -16 10 -16 7 0 10 -240 10 -700 0 -460 -3 -700 -10 -700 -5 0 -10
-7 -10 -16 0 -29 -27 -44 -80 -44 -64 0 -100 30 -100 85 0 19 -4 35 -10 35 -7
0 -10 220 -10 640 0 420 3 640 10 640 6 0 10 14 10 30 0 17 5 30 10 30 6 0 10
9 10 20 0 13 7 20 20 20 11 0 20 5 20 10 0 16 89 12 106 -4z m1329 -11 c14
-13 25 -36 25 -50 0 -14 5 -25 10 -25 7 0 10 -227 10 -660 0 -433 -3 -660 -10
-660 -5 0 -10 -11 -10 -25 0 -14 -11 -37 -25 -50 -19 -20 -34 -25 -75 -25 -58
0 -80 15 -80 54 0 14 -4 26 -10 26 -7 0 -10 233 -10 680 0 447 3 680 10 680 6
0 10 7 10 15 0 9 10 27 23 40 32 34 99 34 132 0z"/>
<path d="M3860 3970 c0 -6 37 -10 90 -10 53 0 90 4 90 10 0 6 -37 10 -90 10
-53 0 -90 -4 -90 -10z"/>
<path d="M2540 3670 c0 -16 -4 -30 -10 -30 -6 0 -10 -97 -10 -270 0 -173 4
-270 10 -270 6 0 10 83 10 230 0 147 4 230 10 230 6 0 10 30 10 70 0 40 -4 70
-10 70 -5 0 -10 -13 -10 -30z"/>
<path d="M3620 3650 c0 -5 9 -10 20 -10 11 0 20 -4 20 -10 0 -5 18 -10 40 -10
22 0 40 -4 40 -10 0 -6 27 -10 60 -10 33 0 60 4 60 10 0 6 -22 10 -50 10 -27
0 -50 5 -50 10 0 6 -22 10 -50 10 -27 0 -50 5 -50 10 0 6 -9 10 -20 10 -11 0
-20 -4 -20 -10z"/>
<path d="M2540 3030 c0 -27 5 -50 10 -50 6 0 10 23 10 50 0 28 -4 50 -10 50
-5 0 -10 -22 -10 -50z"/>
<path d="M1500 3720 c0 -11 -4 -20 -10 -20 -5 0 -10 -13 -10 -30 0 -16 -4 -30
-10 -30 -5 0 -10 -13 -10 -30 0 -16 -4 -30 -10 -30 -5 0 -10 -18 -10 -40 0
-22 -4 -40 -10 -40 -5 0 -10 -18 -10 -40 0 -22 -4 -40 -10 -40 -6 0 -10 -27
-10 -60 0 -33 -4 -60 -10 -60 -6 0 -10 -107 -10 -300 0 -193 4 -300 10 -300 6
0 10 -33 10 -80 0 -47 -4 -80 -10 -80 -5 0 -10 18 -10 40 0 22 -4 40 -10 40
-6 0 -10 30 -10 70 0 40 -4 70 -10 70 -6 0 -10 87 -10 240 0 153 4 240 10 240
6 0 10 30 10 70 0 40 4 70 10 70 6 0 10 18 10 40 0 22 5 40 10 40 6 0 10 18
10 40 0 22 5 40 10 40 6 0 10 14 10 30 0 17 5 30 10 30 6 0 10 9 10 20 0 11 5
20 10 20 6 0 10 9 10 20 0 11 -4 20 -10 20 -5 0 -10 -9 -10 -20 0 -11 -4 -20
-10 -20 -5 0 -10 -9 -10 -20 0 -11 -4 -20 -10 -20 -5 0 -10 -9 -10 -20 0 -11
-4 -20 -10 -20 -5 0 -10 -13 -10 -30 0 -16 -4 -30 -10 -30 -5 0 -10 -13 -10
-30 0 -16 -4 -30 -10 -30 -5 0 -10 -18 -10 -40 0 -22 -4 -40 -10 -40 -5 0 -10
-22 -10 -50 0 -27 -4 -50 -10 -50 -6 0 -10 -37 -10 -90 0 -53 -4 -90 -10 -90
-6 0 -10 -33 -10 -80 0 -47 4 -80 10 -80 6 0 10 -43 10 -110 0 -67 4 -110 10
-110 6 0 10 -27 10 -60 0 -33 4 -60 10 -60 16 0 12 -89 -4 -106 -18 -17 -83
-19 -89 -1 -2 7 -8 8 -13 3 -5 -5 -4 -11 4 -13 6 -3 12 -11 12 -19 0 -19 105
-124 125 -124 8 0 15 -4 15 -10 0 -6 28 -10 65 -10 62 0 68 2 100 35 19 19 35
41 35 50 0 8 5 15 10 15 6 0 10 14 10 30 0 17 5 30 10 30 6 0 10 14 10 30 0
17 5 30 10 30 6 0 10 14 10 30 0 17 5 30 10 30 6 0 10 23 10 50 0 28 5 50 10
50 6 0 10 80 10 220 0 140 -4 220 -10 220 -6 0 -10 37 -10 90 0 53 -4 90 -10
90 -6 0 -10 30 -10 70 0 40 -4 70 -10 70 -5 0 -10 18 -10 40 0 22 -4 40 -10
40 -5 0 -10 14 -10 30 0 17 -4 30 -10 30 -5 0 -10 14 -10 30 0 17 -4 30 -10
30 -5 0 -10 9 -10 20 0 11 -4 20 -10 20 -5 0 -10 7 -10 16 0 15 -23 44 -34 44
-3 0 -6 -9 -6 -20z m40 -500 c0 -47 4 -80 10 -80 6 0 10 -83 10 -230 0 -147
-4 -230 -10 -230 -5 0 -10 9 -10 20 0 11 -4 20 -10 20 -6 0 -10 43 -10 110 0
67 -4 110 -10 110 -6 0 -10 43 -10 110 0 67 4 110 10 110 6 0 10 30 10 70 0
40 4 70 10 70 6 0 10 -33 10 -80z"/>
</g>
</svg>
